{"title":"The Glass Bottom Boat (1966) 1080p AC3 (5.1) HDTV OAR","uid":8816963,"size":2957022218,"categoryP":"video","categoryS":"hd___movies","magnet":"?xt=urn:btih:b22e5fe1f559e518b0e83f6ae530256dfacb83b0&amp;dn=The+Glass+Bottom+Boat+%281966%29+1080p+AC3+%285.1%29+HDTV+OAR&amp;tr=udp%3A%2F%2Ftracker.openbittorrent.com%3A80&amp;tr=udp%3A%2F%2Fopen.demonii.com%3A1337&amp;tr=udp%3A%2F%2Ftracker.coppersurfer.tk%3A6969&amp;tr=udp%3A%2F%2Fexodus.desync.com%3A6969","seeders":2,"leechers":1,"uploader":"nabsltd","files":2,"time":1376610098,"description":"This is my own rip.  The source was TCM, and they have a very large safe area, so although the transmission was 1080p, not every line was used.\n\nThere is a small logo for 20 seconds every 30 minutes.\n\nGeneral\nUnique ID                        : 225281027843046369839556529051489680497 (0xA97B8C38DAAAC7779DAB5F3A68963C71)\nFormat                           : Matroska\nFormat version                   : Version 4 / Version 2\nFile size                        : 2.72 GiB\nDuration                         : 1h 50mn\nOverall bit rate mode            : Variable\nOverall bit rate                 : 3 538 Kbps\nEncoded date                     : UTC 2013-08-15 11:16:24\nWriting application              : mkvmerge v6.3.0 ('You can't stop me!') built on Jun 28 2013 20:09:41\nWriting library                  : libebml v1.3.0 + libmatroska v1.4.0\n\nVideo\nID                               : 1\nFormat                           : AVC\nFormat/Info                      : Advanced Video Codec\nFormat profile                   : &lt;a class=&quot;__cf_email__&quot; href=&quot;/cdn-cgi/l/email-protection&quot; data-cfemail=&quot;6129080609212d554f50&quot;&gt;[email&amp;#160;protected]&lt;/a&gt;&lt;script cf-hash='f9e31' type=&quot;text/javascript&quot;&gt;\n/* &lt;![CDATA[ */!function(){try{var t=&quot;currentScript&quot;in document?document.currentScript:function(){for(var t=document.getElementsByTagName(&quot;script&quot;),e=t.length;e--;)if(t[e].getAttribute(&quot;cf-hash&quot;))return t[e]}();if(t&amp;&amp;t.previousSibling){var e,r,n,i,c=t.previousSibling,a=c.getAttribute(&quot;data-cfemail&quot;);if(a){for(e=&quot;&quot;,r=parseInt(a.substr(0,2),16),n=2;a.length-n;n+=2)i=parseInt(a.substr(n,2),16)^r,e+=String.fromCharCode(i);e=document.createTextNode(e),c.parentNode.replaceChild(e,c)}}}catch(u){}}();/* ]]&gt; */&lt;/script&gt;\nFormat settings, CABAC           : Yes\nFormat settings, ReFrames        : 5 frames\nCodec ID                         : V_MPEG4/ISO/AVC\nDuration                         : 1h 50mn\nBit rate mode                    : Variable\nBit rate                         : 3 020 Kbps\nMaximum bit rate                 : 14.4 Mbps\nWidth                            : 1 788 pixels\nHeight                           : 744 pixels\nDisplay aspect ratio             : 2.40:1\nFrame rate                       : 23.976 fps\nColor space                      : YUV\nChroma subsampling               : 4:2:0\nBit depth                        : 8 bits\nScan type                        : Progressive\nBits/(Pixel*Frame)               : 0.095\nStream size                      : 2.32 GiB (85%)\nWriting library                  : x264 core 135 r2345 f0c1c53\nLanguage                         : English\nDefault                          : Yes\nForced                           : No\n\nAudio\nID                               : 2\nFormat                           : AC-3\nFormat/Info                      : Audio Coding 3\nMode extension                   : CM (complete main)\nCodec ID                         : A_AC3\nDuration                         : 1h 50mn\nBit rate mode                    : Constant\nBit rate                         : 448 Kbps\nChannel(s)                       : 6 channels\nChannel positions                : Front: L C R, Side: L R, LFE\nSampling rate                    : 48.0 KHz\nBit depth                        : 16 bits\nCompression mode                 : Lossy\nStream size                      : 353 MiB (13%)\nLanguage                         : English\nDefault                          : Yes\nForced                           : No\n\nMenu\n00:00:00.000                     : en:Hooking a Mermaid\n00:02:58.637                     : en:Credits\n00:05:09.601                     : en:Special Interests\n00:09:12.886                     : en:Shoeless Kook\n00:14:09.599                     : en:You Ain't No Guppy\n00:18:25.062                     : en:Playing Favorites\n00:22:38.546                     : en:Readying the Rocket\n00:26:01.185                     : en:Stepping Into Things\n00:32:21.940                     : en:Kitchen Gadgets...\n00:37:24.534                     : en:...Run Amuck\n00:39:57.770                     : en:Bum Steering\n00:44:41.012                     : en:The Glass Bottom Boat\n00:47:35.750                     : en:Invitation\n00:49:07.842                     : en:Soft as the Starlight\n00:52:09.918                     : en:Dossier on a Spy\n00:55:50.597                     : en:Visions of Mata Hari\n00:59:51.777                     : en:Fine Public Relations Job\n01:01:57.422                     : en:Who Is Vladimir?\n01:05:35.723                     : en:Surveillance\n01:09:26.059                     : en:Hors d'Oeuvre in Motion\n01:11:38.775                     : en:Nonmixers\n01:14:43.604                     : en:Phoney/Phony Business\n01:16:46.018                     : en:Her Spy Network\n01:19:08.327                     : en:No Man's Land\n01:23:17.868                     : en:May I Have This Dance?\n01:25:47.267                     : en:Satin Does Slip\n01:29:51.261                     : en:The Real Spy Strikes\n01:32:06.710                     : en:Messes and Mix-Ups\n01:34:38.548                     : en:Double Trouble\n01:39:01.644                     : en:Chasing Jenny\n01:43:05.221                     : en:Full-Throttle Lovers\n01:49:01.285                     : en:Cast List\n","torrent":{"xt":"urn:btih:b22e5fe1f559e518b0e83f6ae530256dfacb83b0","amp;dn":"The+Glass+Bottom+Boat+%281966%29+1080p+AC3+%285.1%29+HDTV+OAR","amp;tr":["udp%3A%2F%2Ftracker.openbittorrent.com%3A80","udp%3A%2F%2Fopen.demonii.com%3A1337","udp%3A%2F%2Ftracker.coppersurfer.tk%3A6969","udp%3A%2F%2Fexodus.desync.com%3A6969"],"infoHash":"b22e5fe1f559e518b0e83f6ae530256dfacb83b0","infoHashBuffer":{"type":"Buffer","data":[178,46,95,225,245,89,229,24,176,232,63,106,229,48,37,109,250,203,131,176]},"announce":[],"urlList":[]}}